<svg width="26" height="32" viewBox="0 0 26 32" fill="none" xmlns="http://www.w3.org/2000/svg">
<path d="M12.734 0C11.1238 0.00102013 9.57985 0.630208 8.44126 1.74937C7.30266 2.86852 6.66254 4.38613 6.6615 5.96886V8.85702H2.15607C2.00767 8.85752 1.86487 8.91284 1.75602 9.01199C1.64716 9.11114 1.5802 9.24688 1.56841 9.39229L0.00129913 30.9572C-0.00405054 31.0364 0.00715907 31.1159 0.0342373 31.1907C0.0613154 31.2655 0.103689 31.334 0.158746 31.3921C0.213803 31.4502 0.280378 31.4966 0.354368 31.5284C0.428358 31.5602 0.508197 31.5768 0.588964 31.5772H24.8791C24.9599 31.5768 25.0397 31.5602 25.1137 31.5284C25.1877 31.4966 25.2543 31.4502 25.3093 31.3921C25.3644 31.334 25.4068 31.2655 25.4338 31.1907C25.4609 31.1159 25.4721 31.0364 25.4668 30.9572L23.8997 9.39229C23.8879 9.24688 23.8209 9.11114 23.7121 9.01199C23.6032 8.91284 23.4604 8.85752 23.312 8.85702H18.8066V5.96886C18.8055 4.38613 18.1654 2.86852 17.0268 1.74937C15.8882 0.630208 14.3443 0.00102013 12.734 0ZM22.7635 10.0123L24.2484 30.4219H1.21972L2.70456 10.0123H6.6615V15.211C6.6615 15.3642 6.72342 15.5111 6.83363 15.6194C6.94384 15.7277 7.09331 15.7886 7.24917 15.7886C7.40503 15.7886 7.5545 15.7277 7.66471 15.6194C7.77492 15.5111 7.83683 15.3642 7.83683 15.211V10.0123H17.6313V15.211C17.6313 15.3642 17.6932 15.5111 17.8034 15.6194C17.9136 15.7277 18.0631 15.7886 18.2189 15.7886C18.3748 15.7886 18.5243 15.7277 18.6345 15.6194C18.7447 15.5111 18.8066 15.3642 18.8066 15.211V10.0123H22.7635ZM7.83683 8.85702V5.96886C7.83683 4.69222 8.35279 3.46786 9.27119 2.56513C10.1896 1.66241 11.4352 1.15526 12.734 1.15526C14.0329 1.15526 15.2785 1.66241 16.1969 2.56513C17.1153 3.46786 17.6313 4.69222 17.6313 5.96886V8.85702H7.83683Z" fill="black"/>
</svg>
