<svg width="55" height="55" viewBox="0 0 55 55" fill="none" xmlns="http://www.w3.org/2000/svg">
<g filter="url(#filter0_d_395_1113)">
<circle cx="27.5" cy="25.5" r="23.5" fill="white"/>
</g>
<path d="M27.5 12C26.2987 12.0008 25.1469 12.4702 24.2974 13.3051C23.448 14.14 22.9705 15.2722 22.9697 16.453V18.6076H19.6085C19.4978 18.608 19.3913 18.6493 19.31 18.7232C19.2288 18.7972 19.1789 18.8985 19.1701 19.0069L18.001 35.0951C17.997 35.1542 18.0053 35.2134 18.0255 35.2692C18.0457 35.325 18.0774 35.3762 18.1184 35.4195C18.1595 35.4628 18.2092 35.4974 18.2644 35.5212C18.3196 35.5449 18.3791 35.5573 18.4394 35.5576H36.5606C36.6209 35.5573 36.6804 35.5449 36.7356 35.5212C36.7908 35.4974 36.8405 35.4628 36.8816 35.4195C36.9226 35.3762 36.9543 35.325 36.9745 35.2692C36.9947 35.2134 37.003 35.1542 36.999 35.0951L35.8299 19.0069C35.8211 18.8985 35.7712 18.7972 35.69 18.7232C35.6087 18.6493 35.5022 18.608 35.3915 18.6076H32.0303V16.453C32.0295 15.2722 31.552 14.14 30.7026 13.3051C29.8531 12.4702 28.7013 12.0008 27.5 12ZM34.9823 19.4695L36.09 34.6957H18.91L20.0177 19.4695H22.9697V23.3479C22.9697 23.4622 23.0159 23.5718 23.0981 23.6526C23.1803 23.7334 23.2918 23.7788 23.4081 23.7788C23.5244 23.7788 23.6359 23.7334 23.7181 23.6526C23.8003 23.5718 23.8465 23.4622 23.8465 23.3479V19.4695H31.1535V23.3479C31.1535 23.4622 31.1997 23.5718 31.2819 23.6526C31.3641 23.7334 31.4756 23.7788 31.5919 23.7788C31.7082 23.7788 31.8197 23.7334 31.9019 23.6526C31.9841 23.5718 32.0303 23.4622 32.0303 23.3479V19.4695H34.9823ZM23.8465 18.6076V16.453C23.8465 15.5005 24.2314 14.5871 24.9166 13.9137C25.6018 13.2402 26.531 12.8619 27.5 12.8619C28.469 12.8619 29.3982 13.2402 30.0834 13.9137C30.7686 14.5871 31.1535 15.5005 31.1535 16.453V18.6076H23.8465Z" fill="black"/>
<defs>
<filter id="filter0_d_395_1113" x="0" y="0" width="55" height="55" filterUnits="userSpaceOnUse" color-interpolation-filters="sRGB">
<feFlood flood-opacity="0" result="BackgroundImageFix"/>
<feColorMatrix in="SourceAlpha" type="matrix" values="0 0 0 0 0 0 0 0 0 0 0 0 0 0 0 0 0 0 127 0" result="hardAlpha"/>
<feOffset dy="2"/>
<feGaussianBlur stdDeviation="2"/>
<feComposite in2="hardAlpha" operator="out"/>
<feColorMatrix type="matrix" values="0 0 0 0 0 0 0 0 0 0 0 0 0 0 0 0 0 0 0.2 0"/>
<feBlend mode="normal" in2="BackgroundImageFix" result="effect1_dropShadow_395_1113"/>
<feBlend mode="normal" in="SourceGraphic" in2="effect1_dropShadow_395_1113" result="shape"/>
</filter>
</defs>
</svg>
