<?xml version="1.0" encoding="UTF-8"?>
<svg id="_Слой_1" data-name="Слой 1" xmlns="http://www.w3.org/2000/svg" viewBox="0 0 82.32 82.32">
  <defs>
    <style>
      .cls-1 {
        fill: white;
        stroke-width: 0px;
      }
    </style>
  </defs>
  <path class="cls-1" d="M57.12,82.32h-31.92c-13.9,0-25.2-11.31-25.2-25.2v-31.92C0,11.31,11.31,0,25.2,0h31.92c13.9,0,25.2,11.31,25.2,25.2v31.92c0,13.9-11.31,25.2-25.2,25.2ZM25.2,6.16C14.71,6.16,6.16,14.71,6.16,25.2v31.92c0,10.5,8.54,19.04,19.04,19.04h31.92c10.5,0,19.04-8.54,19.04-19.04v-31.92c0-10.5-8.54-19.04-19.04-19.04h-31.92Z"/>
  <path class="cls-1" d="M41.16,61.99c-11.48,0-20.82-9.34-20.82-20.82s9.34-20.82,20.82-20.82,20.82,9.34,20.82,20.82-9.34,20.82-20.82,20.82ZM41.16,26.65c-8,0-14.51,6.51-14.51,14.51s6.51,14.51,14.51,14.51,14.51-6.51,14.51-14.51-6.51-14.51-14.51-14.51Z"/>
  <path class="cls-1" d="M69.67,18.07c0,2.99-2.43,5.42-5.42,5.42s-5.42-2.43-5.42-5.42,2.43-5.42,5.42-5.42,5.42,2.43,5.42,5.42Z"/>
</svg>