<svg width="56" height="15" viewBox="0 0 56 15" fill="none" xmlns="http://www.w3.org/2000/svg">
<path d="M50.7171 12.4978C49.2013 11.7664 48.6993 9.86203 48.5656 9.35363C48.3982 8.71823 47.8634 6.6882 48.8093 5.75529C49.2877 5.28368 50.1004 5.13605 50.6539 5.50176C51.1327 5.81812 51.2687 6.4212 51.4806 7.42276C51.8399 9.12208 51.4697 9.4851 51.8622 10.5401C52.3111 11.7467 53.091 12.068 52.9436 12.4615C52.7767 12.9057 51.6166 12.9318 50.7171 12.4978ZM26.9208 10.3278C27.0217 9.90287 27.1045 9.4317 27.15 8.91881C27.2573 7.7068 27.1222 6.65275 26.934 5.82978C27.3414 6.27447 27.7985 6.84704 28.2191 7.55289C28.6866 8.33771 28.9768 9.06509 29.1619 9.65696C28.4147 9.88043 27.668 10.1043 26.9208 10.3278ZM54.6645 10.9879C53.961 10.1061 54.0615 9.35048 53.6622 7.3375C53.1487 4.7506 52.8918 3.45737 51.9645 2.50024C50.7157 1.2115 49.0363 1.32458 48.7816 1.34612C48.3818 1.37977 47.1271 1.48567 46.2267 2.60165C45.7069 3.24647 45.5404 3.93661 45.4108 4.49931C44.9065 6.6882 45.5554 8.6047 45.8415 9.44965C46.0716 10.1286 46.5719 11.5591 47.8011 12.8595C47.8129 12.8721 47.8302 12.8891 47.8429 12.9021C47.6069 12.9156 47.3695 12.9075 47.0676 12.803C45.967 12.4229 45.4108 11.3177 45.0229 10.6038C44.2844 9.24324 44.1334 8.00386 43.2684 7.33391C43.1656 7.25449 43.0456 7.19122 42.8973 7.14141C42.1669 6.89685 41.4416 7.2325 41.0969 7.39763C40.8954 7.49411 40.613 7.65296 40.3133 7.91142C40.2728 8.22598 40.2524 8.68996 40.3865 9.21632C40.3893 9.22619 40.3933 9.23382 40.3956 9.24324C40.2651 9.12971 40.1364 9.01753 39.9891 8.89054C38.7621 7.83065 37.7243 6.9516 36.9639 6.31172C37.2463 5.56324 37.7038 4.6272 38.4833 3.69295C38.5279 3.8352 38.5811 3.97206 38.637 4.10039C39.0972 5.15939 40.0504 5.70997 40.3206 5.86164C40.7958 6.12819 41.5994 6.57871 42.5267 6.40595C42.7027 6.37319 43.1447 6.28524 43.5149 5.94466C43.6022 5.86434 43.921 5.56279 43.9783 5.10374C44.0156 4.80489 43.9278 4.55047 43.7314 4.18161C43.3443 3.45423 43.0788 2.9557 42.4344 2.47287C42.146 2.25703 41.5285 1.81818 40.7535 1.7042C41.7185 1.04771 42.4689 0.646104 42.3361 0.326612C42.1924 -0.0193557 41.1032 -0.0673694 40.2878 0.0748767C38.2336 0.43296 37.0517 2.15562 36.3782 3.13698C35.8734 3.87244 35.5814 4.52444 35.4172 4.94624C35.0571 4.51322 34.4863 3.89981 33.6591 3.26666C32.7891 2.60075 32.3407 2.2669 31.6781 2.21934C30.4602 2.13183 29.0941 3.02839 29.1792 3.6391C29.2483 4.13584 30.2433 4.19956 31.6831 4.88701C33.022 5.52644 33.9511 6.32563 34.5677 6.96865C34.1321 7.70635 33.8583 8.33636 33.6868 8.7824C33.4458 9.41017 33.2953 10.0833 32.9583 11.4231C32.9515 11.4501 32.9487 11.4752 32.9424 11.5017C32.4899 10.2053 31.7991 9.06195 30.7672 7.57488C28.2651 3.97026 27.0258 2.87133 26.4956 2.47107C24.7642 1.16528 23.8683 1.11727 23.4518 1.13432C22.5036 1.17291 21.5658 1.64945 21.5918 1.99587C21.6181 2.3553 22.6632 2.32075 23.4518 3.09525C23.8915 3.52692 24.0675 4.02905 24.1467 4.3988C24.5728 5.29445 25.1472 6.84929 25.038 8.80528C25.0235 9.0624 24.9703 9.2742 24.9366 9.51113C23.5113 5.86613 19.5371 0.719247 15.3623 1.21329C14.3836 1.32906 13.2708 1.68087 13.2354 2.11748C13.1844 2.74524 15.4042 2.80762 17.6948 4.28706C18.9109 5.07233 19.9405 6.71108 22.0001 9.98947C22.0001 9.98947 22.7223 11.1387 22.5663 12.3623C22.5509 12.4826 22.5172 12.6639 22.3603 12.7918C22.0083 13.0785 21.2857 12.8936 20.6108 12.6486C18.498 11.8822 17.0859 10.6374 17.0859 10.6374C15.3891 9.14497 13.9175 7.22756 12.4459 6.15511C12.2808 6.03485 11.8015 5.69606 11.1079 5.6126C10.8555 5.58254 10.2953 5.51523 9.82139 5.83113C9.49123 6.05145 9.36161 6.35165 9.31204 6.49569C8.97961 7.47167 8.64762 8.44765 8.31519 9.42363C7.46886 7.34378 6.52112 5.70638 5.75938 4.537C4.22271 2.1794 3.34727 1.58394 2.41408 1.36721C1.38858 1.12938 0.122951 1.30977 0.00834842 1.69747C-0.0957941 2.04927 0.794647 2.41229 1.54957 2.95211C4.44373 5.02163 5.18591 9.57934 5.53927 11.748C5.69344 12.6948 5.79167 13.7283 6.58661 14.0792C7.52161 14.4915 8.91139 13.7363 9.041 13.6641C9.47258 13.4236 9.9651 13.2113 10.2848 12.5432C10.8915 11.2746 10.8801 10.7106 11.4081 10.4189C11.7123 10.2511 12.042 10.2713 12.2249 10.282C13.2949 10.3467 13.983 11.3217 14.4696 11.8804C16.7589 14.5054 20.6936 14.9645 21.6049 14.9537C22.3931 14.9443 23.037 14.8178 23.4572 14.7128C23.5354 14.6858 23.625 14.6477 23.7133 14.6109C24.8347 14.4022 26.2682 13.9203 26.9462 12.7801C27.0799 12.5553 27.1991 12.2798 27.2668 11.9464C28.1114 11.7399 28.9559 11.5335 29.8008 11.3271C30.1187 12.2165 31.1319 14.7536 32.8974 14.9784C33.1357 15.0089 33.4927 15.0076 33.7819 14.9703C34.0234 14.9519 34.2767 14.9129 34.5432 14.8164C34.9193 14.68 35.1867 14.4906 35.3568 14.3448C35.2435 13.1817 35.2449 11.753 35.561 10.1497C35.6974 9.45863 35.8752 8.82144 36.0721 8.24213C37.0731 9.09965 37.7971 9.89748 38.2946 10.5046C39.6512 12.1609 39.7257 13.0166 39.7417 13.3554C39.7617 13.7754 39.6944 14.1222 39.6357 14.3475C40.6298 14.7029 41.6558 14.6881 42.2552 14.2447C42.7172 13.9037 42.8209 13.3845 42.7886 12.8909C43.8528 13.9629 45.173 14.3143 46.6573 14.6387C47.8416 14.8972 49.8066 15.17 52.2851 14.776L52.2824 14.7733C53.4707 14.6562 54.358 14.1523 54.6327 13.9948C55.1265 13.7112 56.007 13.2059 56.0002 12.545C55.9942 11.9562 55.2898 11.7696 54.6645 10.9861V10.9879Z" fill="#FCFCFC"/>
</svg>
