<svg width="119" height="32" viewBox="0 0 119 32" fill="none" xmlns="http://www.w3.org/2000/svg">
<path d="M107.773 26.6623C104.552 25.1019 103.486 21.0392 103.201 19.9545C102.846 18.599 101.709 14.2682 103.719 12.278C104.736 11.2719 106.463 10.957 107.639 11.7372C108.657 12.4121 108.946 13.6987 109.396 15.8353C110.159 19.4606 109.373 20.235 110.207 22.4856C111.161 25.0598 112.818 25.7452 112.505 26.5847C112.15 27.5324 109.685 27.588 107.773 26.6623ZM57.2064 22.0328C57.421 21.1263 57.5968 20.1211 57.6935 19.0269C57.9215 16.4413 57.6345 14.1926 57.2344 12.437C58.1003 13.3856 59.0715 14.6071 59.9654 16.1129C60.9589 17.7872 61.5754 19.339 61.9688 20.6017C60.381 21.0784 58.7942 21.5561 57.2064 22.0328ZM116.162 23.441C114.667 21.5599 114.88 19.9478 114.032 15.6534C112.941 10.1347 112.395 7.37578 110.424 5.33388C107.771 2.58455 104.202 2.82579 103.661 2.87174C102.811 2.94353 100.145 3.16945 98.2314 5.55023C97.1268 6.92585 96.7731 8.39816 96.4977 9.5986C95.4259 14.2682 96.805 18.3568 97.4128 20.1594C97.9018 21.6078 98.9648 24.6596 101.577 27.4338C101.602 27.4606 101.639 27.497 101.666 27.5248C101.164 27.5535 100.66 27.5363 100.018 27.3132C97.6796 26.5024 96.4977 24.1446 95.6733 22.6215C94.1039 19.719 93.7831 17.075 91.945 15.6458C91.7266 15.4763 91.4715 15.3414 91.1565 15.2351C89.6045 14.7134 88.0631 15.4294 87.3305 15.7817C86.9024 15.9875 86.3023 16.3264 85.6655 16.8778C85.5795 17.5489 85.536 18.5387 85.8211 19.6616C85.8269 19.6827 85.8355 19.6989 85.8404 19.719C85.563 19.4769 85.2895 19.2375 84.9764 18.9666C82.3691 16.7055 80.1638 14.8302 78.548 13.4651C79.1482 11.8683 80.1204 9.87143 81.7767 7.87835C81.8714 8.18181 81.9845 8.47378 82.1034 8.74757C83.0814 11.0068 85.1069 12.1814 85.6809 12.5049C86.6908 13.0736 88.3984 14.0347 90.3689 13.6661C90.7428 13.5962 91.6822 13.4086 92.4688 12.682C92.6544 12.5107 93.3318 11.8674 93.4536 10.8881C93.5328 10.2505 93.3463 9.70773 92.9288 8.92084C92.1064 7.36907 91.5421 6.30553 90.1727 5.27549C89.56 4.81503 88.2476 3.8788 86.6009 3.63565C88.6516 2.23514 90.2461 1.37837 89.9639 0.696777C89.6586 -0.0412924 87.3441 -0.143722 85.6114 0.159738C81.2462 0.923654 78.7346 4.59868 77.3033 6.69227C76.2307 8.26127 75.6102 9.65221 75.2614 10.5521C74.496 9.62827 73.2832 8.31966 71.5253 6.96893C69.6766 5.54831 68.7238 4.83609 67.3158 4.73462C64.7278 4.54795 61.8248 6.46061 62.0055 7.76348C62.1524 8.82319 64.2668 8.95913 67.3264 10.4257C70.1714 11.7898 72.1458 13.4948 73.4562 14.8666C72.5304 16.4403 71.9486 17.7844 71.5843 18.7359C71.0721 20.0752 70.7522 21.5111 70.0361 24.3696C70.0216 24.427 70.0158 24.4806 70.0023 24.5371C69.0408 21.7715 67.5728 19.3323 65.3801 16.1599C60.063 8.46996 57.4297 6.12556 56.3028 5.27166C52.6238 2.48595 50.7201 2.38352 49.8348 2.4199C47.8199 2.50222 45.8272 3.51886 45.8823 4.25789C45.9384 5.02468 48.1591 4.95096 49.8348 6.60324C50.7693 7.52416 51.1433 8.59536 51.3115 9.38417C52.217 11.2949 53.4375 14.6119 53.2056 18.7847C53.1747 19.3333 53.0616 19.7851 52.9901 20.2906C49.9614 12.5145 41.5162 1.5344 32.6448 2.58838C30.5651 2.83536 28.2004 3.58587 28.125 4.51731C28.0168 5.85656 32.7337 5.98962 37.6014 9.1458C40.1855 10.8211 42.3734 14.3171 46.7501 21.311C46.7501 21.311 48.2848 23.7626 47.9533 26.3732C47.9204 26.6297 47.8489 27.0165 47.5155 27.2893C46.7675 27.901 45.2319 27.5066 43.7978 26.9839C39.308 25.3489 36.3074 22.6933 36.3074 22.6933C32.7018 19.5094 29.5746 15.4189 26.4474 13.131C26.0966 12.8744 25.078 12.1517 23.6043 11.9736C23.0679 11.9095 21.8773 11.7659 20.8704 12.4398C20.1688 12.9099 19.8934 13.5503 19.788 13.8576C19.0816 15.9397 18.3761 18.0218 17.6697 20.1039C15.8713 15.6668 13.8573 12.1737 12.2386 9.67901C8.97322 4.64942 7.11293 3.3791 5.12991 2.91673C2.95072 2.40936 0.261269 2.79419 0.0177403 3.62129C-0.203562 4.37181 1.68862 5.14625 3.29282 6.29787C9.44288 10.7129 11.02 20.4361 11.7709 25.0626C12.0985 27.0825 12.3072 29.2871 13.9965 30.0357C15.9834 30.9155 18.9366 29.3044 19.2121 29.1503C20.1292 28.6371 21.1758 28.1843 21.8551 26.7589C23.1443 24.0527 23.1201 22.8494 24.2421 22.2271C24.8886 21.8691 25.5892 21.9122 25.9777 21.9352C28.2516 22.073 29.7138 24.1532 30.7478 25.345C35.6126 30.9452 43.9737 31.9245 45.9104 31.9015C47.5851 31.8814 48.9535 31.6114 49.8464 31.3874C50.0127 31.33 50.203 31.2486 50.3905 31.1701C52.7736 30.725 55.8197 29.6969 57.2605 27.2644C57.5447 26.7848 57.7978 26.197 57.9418 25.4858C59.7364 25.0454 61.531 24.605 63.3265 24.1647C64.002 26.062 66.1551 31.4745 69.9066 31.9541C70.413 32.0192 71.1716 32.0164 71.7863 31.9369C72.2994 31.8977 72.8377 31.8144 73.404 31.6086C74.2032 31.3176 74.7714 30.9136 75.1329 30.6025C74.8922 28.1212 74.8951 25.0732 75.5668 21.6528C75.8567 20.1785 76.2345 18.8192 76.653 17.5833C78.78 19.4127 80.3185 21.1148 81.3757 22.41C84.2584 25.9433 84.4169 27.7689 84.4507 28.4916C84.4932 29.3877 84.3502 30.1276 84.2256 30.6082C86.3381 31.3664 88.5182 31.3348 89.7919 30.389C90.7738 29.6614 90.9941 28.5539 90.9255 27.5008C93.1868 29.7878 95.9922 30.5374 99.1465 31.2295C101.663 31.7809 105.839 32.3629 111.106 31.5224C111.104 31.5205 111.102 31.5186 111.1 31.5167C113.625 31.2668 115.51 30.1918 116.094 29.8558C117.143 29.2508 119.014 28.1729 119 26.7628C118.987 25.5068 117.49 25.1086 116.162 23.4372V23.441Z" fill="black"/>
</svg>
