<svg width="9" height="5" viewBox="0 0 9 5" fill="none" xmlns="http://www.w3.org/2000/svg">
<path d="M4.51267 4.99995C4.33714 5.00199 4.16779 4.93753 4.04106 4.82043L0.199159 1.1084C0.136438 1.04851 0.0865697 0.977304 0.0523991 0.898838C0.0182285 0.820372 0.000425948 0.736186 7.55051e-06 0.651088C-0.000410847 0.56599 0.0165632 0.481646 0.0499607 0.402871C0.0833582 0.324097 0.132525 0.252435 0.194653 0.191976C0.256782 0.131518 0.330657 0.0834475 0.412059 0.0505093C0.49346 0.0175711 0.580796 0.000410586 0.669078 7.27819e-06C0.75736 -0.00039603 0.84486 0.0159659 0.926582 0.0481588C1.0083 0.0803518 1.08265 0.127745 1.14537 0.187633L4.51267 3.44507L7.87997 0.187633C8.00737 0.0761806 8.17437 0.0162512 8.34636 0.0202657C8.51835 0.0242803 8.68215 0.0919314 8.8038 0.209197C8.92546 0.326463 8.99564 0.484353 8.9998 0.650143C9.00397 0.815933 8.9418 0.976912 8.82617 1.09972L4.98427 4.82043C4.85754 4.93753 4.6882 5.00199 4.51267 4.99995Z" fill="white"/>
</svg>
