<svg width="364" height="87" viewBox="0 0 364 87" fill="none" xmlns="http://www.w3.org/2000/svg">
<path d="M67.0199 86.2297C66.3799 86.2297 65.82 85.7897 65.67 85.1697L56.3799 47.6099L47.2499 85.1597C47.0999 85.7797 46.5399 86.2197 45.8999 86.2197H22.4699C21.8299 86.2197 21.2699 85.7797 21.1199 85.1597L0.879945 2.55981C0.779945 2.13981 0.879955 1.70987 1.13995 1.36987C1.39995 1.02987 1.80993 0.839844 2.23993 0.839844H28.51C29.19 0.839844 29.7699 1.32976 29.8799 1.99976L36.8399 42.9998L45.7799 1.9397C45.9199 1.2997 46.49 0.839844 47.14 0.839844H65.7799C66.4399 0.839844 67 1.2997 67.14 1.9397L75.9299 42.9998L83.0399 1.99976C83.1599 1.32976 83.7299 0.849854 84.4099 0.849854H110.68C111.11 0.849854 111.51 1.04964 111.78 1.37964C112.04 1.71964 112.14 2.14982 112.04 2.56982L91.7999 85.1697C91.6499 85.7897 91.09 86.2297 90.45 86.2297H67.0199Z" fill="black"/>
<path d="M146.56 86.2295C145.91 86.2295 145.34 85.7794 145.2 85.1394L143.14 75.9695H127.79L125.73 85.1394C125.59 85.7694 125.02 86.2295 124.37 86.2295H98.45C98.01 86.2295 97.6 86.0294 97.34 85.6794C97.08 85.3294 96.99 84.8795 97.11 84.4595L120.36 1.85962C120.53 1.25962 121.08 0.849609 121.7 0.849609H149.21C149.83 0.849609 150.38 1.25962 150.55 1.85962L173.8 84.4595C173.92 84.8795 173.83 85.3294 173.57 85.6794C173.31 86.0294 172.9 86.2295 172.46 86.2295H146.54H146.56ZM139.72 60.0896L135.54 39.1995L131.23 60.0896H139.72Z" fill="black"/>
<path d="M225.77 86.2297C225.17 86.2297 224.65 85.8498 224.45 85.2898L215.84 60.1199L207.38 85.2798C207.19 85.8498 206.66 86.2297 206.06 86.2297H179.97C179.5 86.2297 179.07 85.9999 178.81 85.6099C178.55 85.2199 178.51 84.7298 178.69 84.2998L196.74 41.7898L179.41 2.80981C179.22 2.37981 179.26 1.87975 179.51 1.48975C179.77 1.09975 180.21 0.859863 180.68 0.859863H206.24C206.84 0.859863 207.37 1.24982 207.56 1.81982L215.85 26.9397L224.45 1.80981C224.64 1.24981 225.17 0.869873 225.77 0.869873H251.15C251.62 0.869873 252.06 1.10976 252.32 1.49976C252.58 1.88976 252.62 2.38982 252.42 2.81982L235.09 41.7998L253.14 84.3098C253.32 84.7398 253.28 85.2299 253.02 85.6199C252.76 86.0099 252.33 86.2397 251.86 86.2397H225.77V86.2297Z" fill="black"/>
<path d="M286.69 0.839844H260.94C260.172 0.839844 259.55 1.46206 259.55 2.22974V84.8398C259.55 85.6075 260.172 86.2297 260.94 86.2297H286.69C287.457 86.2297 288.08 85.6075 288.08 84.8398V2.22974C288.08 1.46206 287.457 0.839844 286.69 0.839844Z" fill="black"/>
<path d="M313.82 86.2297C310.16 86.2297 307.05 85.8897 304.58 85.2097C302.06 84.5197 299.99 83.5897 298.43 82.4197C296.81 81.2097 295.65 79.7696 294.96 78.1396C294.3 76.5796 293.96 74.8799 293.96 73.0999V12.9397C293.96 9.2097 295.56 6.19975 298.73 3.98975C301.78 1.86975 306.36 0.839844 312.75 0.839844H344.7C351.09 0.839844 355.67 1.86975 358.72 3.98975C361.88 6.19975 363.49 9.2097 363.49 12.9397V73.0999C363.49 74.8699 363.15 76.5696 362.49 78.1396C361.8 79.7696 360.64 81.2097 359.02 82.4197C357.47 83.5797 355.4 84.5197 352.87 85.2097C350.4 85.8797 347.29 86.2297 343.63 86.2297H313.81H313.82ZM322.68 68.8997C322.85 68.9397 323.17 68.9797 323.76 68.9797H333.52C334.11 68.9797 334.44 68.9297 334.6 68.8997C334.6 68.8497 334.61 68.7697 334.61 68.6597V18.2998C334.63 18.2498 334.43 18.0999 333.7 18.0999H323.58C322.85 18.0999 322.64 18.2498 322.64 18.2498L322.67 68.6597C322.67 68.7597 322.67 68.8397 322.68 68.8997Z" fill="black"/>
</svg>
