<svg width="168" height="130" viewBox="0 0 168 130" fill="none" xmlns="http://www.w3.org/2000/svg">
<path d="M70.1799 89.3796C70.0699 89.7096 69.7599 89.9297 69.4099 89.9297H54.1599C53.8899 89.9297 53.6299 89.7898 53.4799 89.5698C53.3299 89.3398 53.2999 89.0498 53.4099 88.7998L63.9599 63.9497L57.3599 49.1099L54.0799 64.1697L43.6199 2.57983C43.4499 1.56983 42.5799 0.839844 41.5599 0.839844H2.08992C1.44992 0.839844 0.83993 1.13965 0.43993 1.63965C0.0399297 2.14965 -0.10007 2.79969 0.0499303 3.42969L13.8799 59.8896L19.3099 40.6199C19.4099 40.2699 19.7299 40.0298 20.0899 40.0298H36.1699C36.5299 40.0298 36.8499 40.2699 36.9499 40.6199L50.5399 88.8997C50.6099 89.1397 50.5599 89.4099 50.4099 89.6099C50.2599 89.8099 50.0199 89.9297 49.7599 89.9297H34.6099C34.2299 89.9297 33.8999 89.6698 33.8199 89.2998L32.6099 83.9397H23.6399L22.4299 89.2998C22.3499 89.6698 22.0199 89.9297 21.6399 89.9297H21.2399L30.4499 127.52C30.6799 128.46 31.5199 129.11 32.4799 129.11H67.6799C68.6499 129.11 69.4799 128.45 69.7099 127.51L79.4699 87.3896L75.1099 74.6597L70.1699 89.3699L70.1799 89.3796Z" fill="white"/>
<path d="M25.6602 74.6594H30.6202L28.1802 62.4395L25.6602 74.6594Z" fill="white"/>
<path d="M166.67 1.63965C166.27 1.12965 165.67 0.839844 165.02 0.839844H125.55C124.53 0.839844 123.66 1.56982 123.49 2.56982L116.97 40.1597C117.19 40.3097 117.33 40.5498 117.33 40.8398V89.1199C117.33 89.5699 116.97 89.9297 116.52 89.9297H101.47C101.02 89.9297 100.66 89.5699 100.66 89.1199V40.8398C100.66 40.3898 101.02 40.0298 101.47 40.0298H107.63L99.5898 2.49976C99.3798 1.53976 98.5298 0.849854 97.5398 0.849854H69.5398C68.5598 0.849854 67.7098 1.53976 67.4998 2.49976L59.3198 40.0398H69.4898C69.8398 40.0398 70.1498 40.2699 70.2598 40.5999L75.1098 55.2798L80.1398 40.5898C80.2498 40.2598 80.5598 40.0398 80.9098 40.0398H95.7498C96.0298 40.0398 96.2798 40.1797 96.4298 40.4097C96.5798 40.6397 96.5998 40.9297 96.4898 41.1797L86.3598 63.9697L96.9098 88.8198C97.0198 89.0698 96.9898 89.3598 96.8398 89.5898C96.6898 89.8198 96.4298 89.9497 96.1598 89.9497H88.0798L97.3798 127.54C97.6098 128.47 98.4498 129.13 99.4098 129.13H134.61C135.57 129.13 136.41 128.47 136.64 127.54L145.85 89.9497H132.37C130.23 89.9497 128.41 89.7499 126.97 89.3599C125.5 88.9599 124.29 88.4097 123.38 87.7297C122.44 87.0197 121.75 86.1797 121.35 85.2297C120.96 84.3197 120.77 83.3298 120.77 82.2798V47.1199C120.77 44.9399 121.71 43.1796 123.56 41.8896C125.34 40.6496 128.02 40.0498 131.76 40.0498H150.44C153.61 40.0498 156.02 40.4896 157.76 41.3796L167.05 3.44971C167.2 2.82971 167.06 2.16967 166.66 1.65967L166.67 1.63965Z" fill="white"/>
<path d="M138.09 50.1099C137.66 50.1099 137.54 50.1997 137.54 50.1997L137.56 79.6697C137.56 79.7297 137.56 79.7798 137.56 79.8098C137.66 79.8298 137.85 79.8599 138.19 79.8599H143.9C144.24 79.8599 144.44 79.8298 144.53 79.8098C144.53 79.7798 144.53 79.7397 144.53 79.6697V50.2297C144.53 50.2297 144.42 50.1099 144 50.1099H138.09Z" fill="white"/>
</svg>
